<?xml version="1.0" encoding="utf-8"?>
<!-- Generator: Adobe Illustrator 23.0.1, SVG Export Plug-In . SVG Version: 6.00 Build 0)  -->
<svg version="1.1" id="Layer_1" xmlns="http://www.w3.org/2000/svg" xmlns:xlink="http://www.w3.org/1999/xlink" x="0px" y="0px"
	 viewBox="0 0 128 128" style="enable-background:new 0 0 128 128;" xml:space="preserve">
<style type="text/css">
	.st0{fill:#696969;stroke:#000000;stroke-miterlimit:10;}
	.st1{fill:#333333;stroke:#999999;stroke-width:0.25;stroke-miterlimit:10;}
	.st2{fill:#CCE2FF;stroke:#000000;stroke-miterlimit:10;}
	.st3{fill:#696969;stroke:#000000;stroke-width:0.5;stroke-miterlimit:10;}
	.st4{fill:#4B81BC;stroke:#000000;stroke-width:0.5;stroke-miterlimit:10;}
	.st5{fill:#FFFFFF;}
	.st6{fill:#CCE2FF;stroke:#000000;stroke-width:0.5;stroke-miterlimit:10;}
</style>
<g>
	<circle class="st0" cx="112.26" cy="101.93" r="7.85"/>
	<circle class="st1" cx="112.26" cy="101.93" r="3.35"/>
</g>
<g>
	<circle class="st0" cx="35.22" cy="101.93" r="7.85"/>
	<circle class="st1" cx="35.22" cy="101.93" r="3.35"/>
</g>
<path class="st2" d="M21.28,51.84c8.59-10.12,47.52-49.68,94.85,0.56c1.31,1.39,2.05,3.22,2.05,5.13v39.75
	c0,4.1-3.33,7.43-7.43,7.43H26.95c-4.1,0-7.43-3.33-7.43-7.43V56.65C19.52,54.89,20.14,53.19,21.28,51.84z"/>
<g>
	<circle class="st0" cx="27.37" cy="104.7" r="7.85"/>
</g>
<path class="st3" d="M74.46,93.96h36.44c2.16,0,3.93-1.77,3.93-3.93v0c0-2.16-1.77-3.93-3.93-3.93H74.46
	c-2.16,0-3.93,1.77-3.93,3.93v0C70.54,92.19,72.3,93.96,74.46,93.96z"/>
<g>
	<path class="st4" d="M107.44,72H92.19c-2.21,0-4-1.79-4-4v-8c0-2.21,1.79-4,4-4h15.26c2.21,0,4,1.79,4,4v8
		C111.44,70.21,109.65,72,107.44,72z"/>
	<path class="st5" d="M107.8,62.28h-2.3c-1.4,0-2.53-1.13-2.53-2.53v0c0-1.4,1.13-2.53,2.53-2.53h2.3c1.4,0,2.53,1.13,2.53,2.53v0
		C110.33,61.14,109.2,62.28,107.8,62.28z"/>
</g>
<g>
	<path class="st4" d="M73.44,72H58.19c-2.21,0-4-1.79-4-4v-8c0-2.21,1.79-4,4-4h15.26c2.21,0,4,1.79,4,4v8
		C77.44,70.21,75.65,72,73.44,72z"/>
	<path class="st5" d="M73.8,62.28h-2.3c-1.4,0-2.53-1.13-2.53-2.53v0c0-1.4,1.13-2.53,2.53-2.53h2.3c1.4,0,2.53,1.13,2.53,2.53v0
		C76.33,61.14,75.2,62.28,73.8,62.28z"/>
</g>
<circle class="st1" cx="27.37" cy="104.7" r="3.35"/>
<path class="st6" d="M67.61,38.29h21.74C72.87,16.22,101.06,7.38,101.06,7.38l-28.19,8.84L67.61,38.29z"/>
<g>
	<circle class="st0" cx="108.91" cy="104.7" r="7.85"/>
	<circle class="st1" cx="108.91" cy="104.7" r="3.35"/>
</g>
</svg>
